<svg width="28" height="28" viewBox="0 0 28 28" fill="none" xmlns="http://www.w3.org/2000/svg">
<path d="M13.9972 8.50692C10.9574 8.50692 8.50414 10.9602 8.50414 14.0001C8.50414 17.0399 10.9574 19.4932 13.9972 19.4932C17.037 19.4932 19.4902 17.0399 19.4902 14.0001C19.4902 10.9602 17.037 8.50692 13.9972 8.50692ZM13.9972 17.5702C12.0314 17.5702 10.4271 15.9659 10.4271 14.0001C10.4271 12.0342 12.0314 10.4299 13.9972 10.4299C15.963 10.4299 17.5673 12.0342 17.5673 14.0001C17.5673 15.9659 15.963 17.5702 13.9972 17.5702ZM19.7152 7.00173C19.0055 7.00173 18.4323 7.57488 18.4323 8.28462C18.4323 8.99437 19.0055 9.56752 19.7152 9.56752C20.4249 9.56752 20.9981 8.99705 20.9981 8.28462C20.9983 8.11609 20.9653 7.94917 20.9009 7.79343C20.8365 7.63769 20.742 7.49618 20.6228 7.37701C20.5036 7.25784 20.3621 7.16335 20.2064 7.09895C20.0507 7.03455 19.8837 7.00151 19.7152 7.00173ZM24.7048 14.0001C24.7048 12.5217 24.7182 11.0566 24.6351 9.58091C24.5521 7.86681 24.1611 6.34555 22.9077 5.09211C21.6516 3.836 20.133 3.44765 18.419 3.36462C16.9406 3.28159 15.4756 3.29499 13.9999 3.29499C12.5215 3.29499 11.0565 3.28159 9.58079 3.36462C7.86673 3.44765 6.34549 3.83868 5.09208 5.09211C3.83599 6.34823 3.44765 7.86681 3.36462 9.58091C3.28159 11.0593 3.29499 12.5243 3.29499 14.0001C3.29499 15.4758 3.28159 16.9435 3.36462 18.4192C3.44765 20.1333 3.83867 21.6546 5.09208 22.908C6.34817 24.1641 7.86673 24.5525 9.58079 24.6355C11.0592 24.7185 12.5242 24.7052 13.9999 24.7052C15.4783 24.7052 16.9432 24.7185 18.419 24.6355C20.133 24.5525 21.6543 24.1615 22.9077 22.908C24.1638 21.6519 24.5521 20.1333 24.6351 18.4192C24.7208 16.9435 24.7048 15.4785 24.7048 14.0001ZM22.3479 20.3155C22.1524 20.8029 21.9167 21.1672 21.5391 21.5421C21.1615 21.9197 20.7999 22.1554 20.3125 22.351C18.9037 22.9107 15.5586 22.7848 13.9972 22.7848C12.4358 22.7848 9.088 22.9107 7.67925 22.3536C7.19181 22.1581 6.82757 21.9224 6.45262 21.5448C6.07499 21.1672 5.83931 20.8056 5.64379 20.3181C5.08672 18.9067 5.2126 15.5615 5.2126 14.0001C5.2126 12.4386 5.08672 9.09078 5.64379 7.68201C5.83931 7.19456 6.07499 6.83032 6.45262 6.45536C6.83025 6.0804 7.19181 5.84203 7.67925 5.64652C9.088 5.08943 12.4358 5.21531 13.9972 5.21531C15.5586 5.21531 18.9064 5.08943 20.3151 5.64652C20.8026 5.84203 21.1668 6.07772 21.5418 6.45536C21.9194 6.83299 22.1551 7.19456 22.3506 7.68201C22.9077 9.09078 22.7818 12.4386 22.7818 14.0001C22.7818 15.5615 22.9077 18.9067 22.3479 20.3155Z" fill="black"/>
</svg>
