<svg width="28" height="28" viewBox="0 0 28 28" fill="none" xmlns="http://www.w3.org/2000/svg">
<path d="M25.375 6.95353C24.5383 7.31446 23.6278 7.57423 22.6899 7.6754C23.6636 7.09691 24.3928 6.18298 24.7407 5.10509C23.8269 5.64865 22.8259 6.02981 21.7821 6.23165C21.3458 5.76524 20.8181 5.39367 20.232 5.14011C19.6458 4.88654 19.0137 4.75641 18.375 4.75782C15.7911 4.75782 13.7129 6.85236 13.7129 9.42267C13.7129 9.78361 13.7567 10.1445 13.8278 10.4918C9.95864 10.2895 6.50786 8.44103 4.21372 5.61095C3.7957 6.32494 3.57665 7.13789 3.57935 7.96525C3.57935 9.584 4.40239 11.0113 5.65747 11.8508C4.91783 11.8217 4.19552 11.6184 3.54927 11.2574V11.3149C3.54927 13.5817 5.15161 15.4602 7.28716 15.8922C6.88619 15.9964 6.4737 16.0496 6.05942 16.0508C5.75591 16.0508 5.4688 16.0207 5.17895 15.9797C5.76958 17.8281 7.4895 19.1707 9.53755 19.2145C7.9352 20.4695 5.92817 21.2078 3.74888 21.2078C3.35786 21.2078 2.99692 21.1942 2.62231 21.1504C4.6895 22.4766 7.14224 23.2422 9.78364 23.2422C18.3586 23.2422 23.0508 16.1383 23.0508 9.97228C23.0508 9.76993 23.0508 9.56759 23.0372 9.36525C23.945 8.70079 24.7407 7.87775 25.375 6.95353Z" fill="black"/>
</svg>
