<svg width="28" height="28" viewBox="0 0 28 28" fill="none" xmlns="http://www.w3.org/2000/svg">
<path d="M25.1754 7.99746C25.3388 7.45496 25.1754 7.05713 24.4031 7.05713H21.8446C21.1936 7.05713 20.8961 7.4013 20.7328 7.7793C20.7328 7.7793 19.4319 10.9515 17.5886 13.0083C16.9936 13.6068 16.7218 13.7958 16.3974 13.7958C16.2353 13.7958 15.9996 13.6068 15.9996 13.0643V7.99746C15.9996 7.34646 15.8118 7.05713 15.2693 7.05713H11.2489C10.8429 7.05713 10.5979 7.35813 10.5979 7.64513C10.5979 8.26113 11.5196 8.40346 11.6141 10.1395V13.9055C11.6141 14.7303 11.4659 14.8808 11.1393 14.8808C10.2724 14.8808 8.16308 11.697 6.91125 8.0523C6.66742 7.34413 6.42125 7.0583 5.76792 7.0583H3.21059C2.47909 7.0583 2.33325 7.40246 2.33325 7.78046C2.33325 8.45946 3.20009 11.8195 6.37109 16.2633C8.48509 19.2978 11.4613 20.9428 14.1726 20.9428C15.7978 20.9428 15.9984 20.5776 15.9984 19.9476V17.654C15.9984 16.9236 16.1536 16.7766 16.6681 16.7766C17.0461 16.7766 17.6971 16.968 19.2149 18.4298C20.9486 20.1635 21.2356 20.9416 22.2098 20.9416H24.7671C25.4974 20.9416 25.8626 20.5765 25.6526 19.8555C25.4228 19.138 24.5944 18.0938 23.4954 16.8583C22.8981 16.1536 22.0056 15.3953 21.7338 15.0161C21.3546 14.5273 21.4643 14.3115 21.7338 13.8775C21.7349 13.8786 24.8511 9.48963 25.1754 7.99746Z" fill="black"/>
</svg>
